<?xml version="1.0" encoding="UTF-8" standalone="no"?>
<!-- Created with Inkscape (http://www.inkscape.org/) -->

<svg
   width="55.504749mm"
   height="5.1054659mm"
   viewBox="0 0 55.504749 5.1054659"
   version="1.1"
   id="svg1"
   inkscape:export-filename="Logo.svg"
   inkscape:export-xdpi="96"
   inkscape:export-ydpi="96"
   xmlns:inkscape="http://www.inkscape.org/namespaces/inkscape"
   xmlns:sodipodi="http://sodipodi.sourceforge.net/DTD/sodipodi-0.dtd"
   xmlns="http://www.w3.org/2000/svg"
   xmlns:svg="http://www.w3.org/2000/svg">
  <sodipodi:namedview
     id="namedview1"
     pagecolor="#ffffff"
     bordercolor="#000000"
     borderopacity="0.25"
     inkscape:showpageshadow="2"
     inkscape:pageopacity="0.0"
     inkscape:pagecheckerboard="0"
     inkscape:deskcolor="#d1d1d1"
     inkscape:document-units="mm"
     inkscape:export-bgcolor="#ffffff00" />
  <defs
     id="defs1">
    <clipPath
       clipPathUnits="userSpaceOnUse"
       id="clipPath13">
      <path
         d="M 0,10194.939 H 1919.984 V 0 H 0 Z"
         transform="translate(-874.9816,-10012.532)"
         id="path13" />
    </clipPath>
    <clipPath
       clipPathUnits="userSpaceOnUse"
       id="clipPath15">
      <path
         d="M 0,10194.939 H 1919.984 V 0 H 0 Z"
         transform="translate(-893.25212,-10006.749)"
         id="path15" />
    </clipPath>
    <clipPath
       clipPathUnits="userSpaceOnUse"
       id="clipPath17">
      <path
         d="M 0,10194.939 H 1919.984 V 0 H 0 Z"
         transform="translate(-1021.3039,-10012.532)"
         id="path17" />
    </clipPath>
    <clipPath
       clipPathUnits="userSpaceOnUse"
       id="clipPath19">
      <path
         d="M 0,10194.939 H 1919.984 V 0 H 0 Z"
         transform="translate(-980.1448,-10006.749)"
         id="path19" />
    </clipPath>
    <clipPath
       clipPathUnits="userSpaceOnUse"
       id="clipPath21">
      <path
         d="M 0,10194.939 H 1919.984 V 0 H 0 Z"
         id="path21" />
    </clipPath>
    <clipPath
       clipPathUnits="userSpaceOnUse"
       id="clipPath23">
      <path
         d="M 0,10194.939 H 1919.984 V 0 H 0 Z"
         transform="translate(-1004.3625,-10013.668)"
         id="path23" />
    </clipPath>
    <clipPath
       clipPathUnits="userSpaceOnUse"
       id="clipPath64">
      <path
         d="M 0,10194.939 H 1919.984 V 0 H 0 Z"
         transform="translate(-933.98072,-10010.529)"
         id="path64" />
    </clipPath>
  </defs>
  <g
     inkscape:label="Capa 1"
     inkscape:groupmode="layer"
     id="layer1"
     transform="translate(-75.829386,-34.639922)">
    <path
       id="path10"
       d="m 102.44258,35.647628 h 1.52964 v 3.99909 h 0.97367 v -3.99909 h 1.54235 v -0.90911 h -4.04566 z"
       style="fill:#1d1d1b icc-color(Display, 0.11399841, 0.11399841, 0.10598755);fill-opacity:1;fill-rule:nonzero;stroke:none;stroke-width:0.352778" />
    <path
       id="path11"
       d="m 90.839442,34.738488 h -0.97367 v 4.9082 h 3.40149 v -0.91123 h -2.42782 z"
       style="fill:#1d1d1b icc-color(Display, 0.11399841, 0.11399841, 0.10598755);fill-opacity:1;fill-rule:nonzero;stroke:none;stroke-width:0.352778" />
    <path
       id="path12"
       d="m 0,0 c -1.75,0.6 -3.319,0.995 -3.319,2.107 0,0.839 0.812,1.454 2.086,1.454 1.233,0 2.449,-0.716 2.765,-2.105 l 2.661,0.733 c -0.595,2.187 -2.661,3.774 -5.266,3.774 -2.942,0 -5.088,-1.846 -5.088,-4.01 0,-2.431 2.066,-3.284 3.717,-3.881 1.968,-0.696 3.855,-1.034 3.855,-2.446 0,-0.935 -0.775,-1.669 -2.266,-1.669 -1.731,0 -2.844,1.171 -3.143,2.426 l -2.663,-0.716 c 0.757,-2.524 2.761,-4.176 5.686,-4.176 3.184,0 5.328,1.768 5.328,4.251 C 4.353,-1.768 2.03,-0.696 0,0"
       style="fill:#1d1d1b icc-color(Display, 0.11399841, 0.11399841, 0.10598755);fill-opacity:1;fill-rule:nonzero;stroke:none"
       transform="matrix(0.35277776,0,0,-0.35277776,78.179232,36.743538)"
       clip-path="url(#clipPath13)" />
    <path
       id="path14"
       d="m 0,0 c -2.542,0 -4.336,1.846 -4.336,4.514 0,2.684 1.794,4.512 4.336,4.512 2.568,0 4.359,-1.828 4.359,-4.512 C 4.359,1.846 2.568,0 0,0 m 0,11.746 c -3.998,0 -7.217,-3.04 -7.217,-7.232 0,-4.2 3.219,-7.24 7.217,-7.24 3.998,0 7.239,3.04 7.239,7.24 0,4.192 -3.241,7.232 -7.239,7.232"
       style="fill:#1d1d1b icc-color(Display, 0.11399841, 0.11399841, 0.10598755);fill-opacity:1;fill-rule:nonzero;stroke:none"
       transform="matrix(0.35277776,0,0,-0.35277776,84.624672,38.783718)"
       clip-path="url(#clipPath15)" />
    <path
       id="path16"
       d="m 0,0 c -1.75,0.6 -3.323,0.995 -3.323,2.107 0,0.839 0.816,1.454 2.088,1.454 C 0,3.561 1.214,2.845 1.53,1.456 L 4.193,2.189 C 3.596,4.376 1.53,5.963 -1.073,5.963 c -2.943,0 -5.088,-1.846 -5.088,-4.01 0,-2.431 2.064,-3.284 3.712,-3.881 1.971,-0.696 3.86,-1.034 3.86,-2.446 0,-0.935 -0.775,-1.669 -2.267,-1.669 -1.731,0 -2.845,1.171 -3.142,2.426 l -2.663,-0.716 c 0.757,-2.524 2.761,-4.176 5.685,-4.176 3.183,0 5.329,1.768 5.329,4.251 C 4.353,-1.768 2.03,-0.696 0,0"
       style="fill:#1d1d1b icc-color(Display, 0.11399841, 0.11399841, 0.10598755);fill-opacity:1;fill-rule:nonzero;stroke:none"
       transform="matrix(0.35277776,0,0,-0.35277776,129.79849,36.743538)"
       clip-path="url(#clipPath17)" />
    <path
       id="path18"
       d="m 0,0 c -2.546,0 -4.336,1.846 -4.336,4.514 0,2.684 1.79,4.512 4.336,4.512 2.565,0 4.359,-1.828 4.359,-4.512 C 4.359,1.846 2.565,0 0,0 m 0,11.746 c -3.998,0 -7.216,-3.04 -7.216,-7.232 0,-4.2 3.218,-7.24 7.216,-7.24 3.998,0 7.239,3.04 7.239,7.24 0,4.192 -3.241,7.232 -7.239,7.232"
       style="fill:#1d1d1b icc-color(Display, 0.11399841, 0.11399841, 0.10598755);fill-opacity:1;fill-rule:nonzero;stroke:none"
       transform="matrix(0.35277776,0,0,-0.35277776,115.27847,38.783718)"
       clip-path="url(#clipPath19)" />
    <path
       id="path20"
       d="m 962.528,10004.3 h 2.76 v 13.916 h -2.76 z"
       style="fill:#1d1d1b icc-color(Display, 0.11399841, 0.11399841, 0.10598755);fill-opacity:1;fill-rule:nonzero;stroke:none"
       transform="matrix(0.35277776,0,0,-0.35277776,-230.49482,3568.9423)"
       clip-path="url(#clipPath21)" />
    <path
       id="path22"
       d="M 0,0 C 0,-2.348 0.041,-4.613 0.019,-4.613 H 0 c -0.017,0 -1.766,2.484 -2.724,3.739 L -6.761,4.548 H -9.366 V -9.365 h 2.761 v 4.493 c 0,2.764 -0.037,4.772 -0.018,4.772 h 0.018 c 0.021,0 1.553,-2.189 2.804,-3.899 L 0.162,-9.365 H 2.76 V 4.548 H 0 Z"
       style="fill:#1d1d1b icc-color(Display, 0.11399841, 0.11399841, 0.10598755);fill-opacity:1;fill-rule:nonzero;stroke:none"
       transform="matrix(0.35277776,0,0,-0.35277776,123.82195,36.342848)"
       clip-path="url(#clipPath23)" />
    <path
       id="path63"
       d="m 0,0 c 0,-2.586 -1.118,-3.779 -3.224,-3.779 -2.128,0 -3.24,1.193 -3.24,3.779 v 7.83 h -2.765 v -7.871 c 0,-4.094 2.324,-6.321 6.005,-6.321 3.659,0 6.002,2.227 6.002,6.321 V 7.83 H 0 Z"
       style="fill:#1d1d1b icc-color(Display, 0.11399841, 0.11399841, 0.10598755);fill-opacity:1;fill-rule:nonzero;stroke:none"
       transform="matrix(0.35277776,0,0,-0.35277776,98.992812,37.450468)"
       clip-path="url(#clipPath64)" />
  </g>
</svg>
