<?xml version="1.0" encoding="UTF-8" standalone="no"?>
<!-- Created with Inkscape (http://www.inkscape.org/) -->

<svg
   width="83.162376mm"
   height="36.918938mm"
   viewBox="0 0 83.162376 36.918938"
   version="1.1"
   id="svg1"
   inkscape:export-filename="bitmap.png"
   inkscape:export-xdpi="96"
   inkscape:export-ydpi="96"
   xmlns:inkscape="http://www.inkscape.org/namespaces/inkscape"
   xmlns:sodipodi="http://sodipodi.sourceforge.net/DTD/sodipodi-0.dtd"
   xmlns="http://www.w3.org/2000/svg"
   xmlns:svg="http://www.w3.org/2000/svg">
  <sodipodi:namedview
     id="namedview1"
     pagecolor="#ffffff"
     bordercolor="#000000"
     borderopacity="0.25"
     inkscape:showpageshadow="2"
     inkscape:pageopacity="0.0"
     inkscape:pagecheckerboard="0"
     inkscape:deskcolor="#d1d1d1"
     inkscape:document-units="mm"
     inkscape:export-bgcolor="#ffffff00" />
  <defs
     id="defs1">
    <clipPath
       clipPathUnits="userSpaceOnUse"
       id="clipPath25">
      <path
         d="M 0,10194.939 H 1919.984 V 0 H 0 Z"
         transform="translate(-101.7682,-10088.095)"
         id="path25" />
    </clipPath>
    <clipPath
       clipPathUnits="userSpaceOnUse"
       id="clipPath27">
      <path
         d="M 0,10194.939 H 1919.984 V 0 H 0 Z"
         transform="translate(-143.19801,-10107.744)"
         id="path27" />
    </clipPath>
    <clipPath
       clipPathUnits="userSpaceOnUse"
       id="clipPath29">
      <path
         d="M 0,10194.939 H 1919.984 V 0 H 0 Z"
         transform="translate(-197.67441,-10083.486)"
         id="path29" />
    </clipPath>
    <clipPath
       clipPathUnits="userSpaceOnUse"
       id="clipPath31">
      <path
         d="M 0,10194.939 H 1919.984 V 0 H 0 Z"
         transform="translate(-237.23341,-10092.268)"
         id="path31" />
    </clipPath>
    <clipPath
       clipPathUnits="userSpaceOnUse"
       id="clipPath33">
      <path
         d="M 0,10194.939 H 1919.984 V 0 H 0 Z"
         transform="translate(-217.19971,-10037.629)"
         id="path33" />
    </clipPath>
    <clipPath
       clipPathUnits="userSpaceOnUse"
       id="clipPath35">
      <path
         d="M 0,10194.939 H 1919.984 V 0 H 0 Z"
         transform="translate(-302.07021,-10025.31)"
         id="path35" />
    </clipPath>
    <clipPath
       clipPathUnits="userSpaceOnUse"
       id="clipPath37">
      <path
         d="M 0,10194.939 H 1919.984 V 0 H 0 Z"
         transform="translate(-105.23031,-10037.772)"
         id="path37" />
    </clipPath>
    <clipPath
       clipPathUnits="userSpaceOnUse"
       id="clipPath39">
      <path
         d="M 0,10194.939 H 1919.984 V 0 H 0 Z"
         transform="translate(-156.52401,-10010.634)"
         id="path39" />
    </clipPath>
    <clipPath
       clipPathUnits="userSpaceOnUse"
       id="clipPath41">
      <path
         d="M 0,10194.939 H 1919.984 V 0 H 0 Z"
         transform="translate(-242.1718,-10043.668)"
         id="path41" />
    </clipPath>
  </defs>
  <g
     inkscape:label="Capa 1"
     inkscape:groupmode="layer"
     id="layer1"
     transform="translate(-60.060415,-62.177084)">
    <path
       id="path24"
       d="m 0,0 c -2.423,0 -3.403,0.047 -4.083,0.099 v 13.432 h 3.91 c 4.673,0 7.816,-2.58 7.816,-6.415 C 7.643,2.658 4.784,0 0,0 m 0.172,19.882 h -15.684 v -6.351 h 4.377 v -32.458 h 7.052 v 12.731 c 0.797,-0.044 1.857,-0.044 3.499,-0.044 9.861,0 15.514,4.865 15.514,13.356 0,7.635 -5.93,12.766 -14.758,12.766"
       style="fill:#1d1d1b icc-color(Display, 0.11399841, 0.11399841, 0.10598755);fill-opacity:1;fill-rule:nonzero;stroke:none"
       transform="matrix(0.35277776,0,0,-0.35277776,65.999394,69.437567)"
       clip-path="url(#clipPath25)" />
    <path
       id="path26"
       d="m 0,0 v 0.235 h -11.401 v -6.359 h 4.376 V -38.6 h 23.966 v 6.289 l -16.909,0.006 z"
       style="fill:#1d1d1b icc-color(Display, 0.11399841, 0.11399841, 0.10598755);fill-opacity:1;fill-rule:nonzero;stroke:none"
       transform="matrix(0.35277776,0,0,-0.35277776,80.614908,62.505695)"
       clip-path="url(#clipPath27)" />
    <path
       id="path28"
       d="m 0,0 c 0,-5.608 -2.663,-8.57 -7.697,-8.57 -4.857,0 -7.64,3.212 -7.64,8.805 v 24.256 h -11.254 v -6.353 h 4.198 V -0.113 c 0,-9.488 5.356,-14.93 14.696,-14.93 9.265,0 14.576,5.486 14.576,15.043 V 24.491 H 0.028 Z"
       style="fill:#1d1d1b icc-color(Display, 0.11399841, 0.11399841, 0.10598755);fill-opacity:1;fill-rule:nonzero;stroke:none"
       transform="matrix(0.35277776,0,0,-0.35277776,99.832972,71.063625)"
       clip-path="url(#clipPath29)" />
    <path
       id="path30"
       d="m 0,0 c -3.78,1.374 -6.91,2.754 -6.91,5.733 0,2.769 2.216,4.493 5.779,4.493 2.315,0 4.268,-0.577 4.932,-1.115 C 4.567,8.487 5.039,7.353 5.039,6.155 V 5.92 l 6.919,-0.009 -0.05,1.744 c -0.374,5.157 -5.712,8.753 -12.977,8.753 -7.632,0 -12.96,-4.58 -12.96,-11.143 0,-7.199 5.092,-9.592 12.292,-12.193 4.265,-1.482 6.91,-2.969 6.91,-5.789 0,-3.1 -2.49,-4.959 -6.657,-4.959 -2.345,0 -4.509,0.583 -5.952,1.602 l -0.03,0.014 c -0.673,0.589 -1.109,1.719 -1.109,2.886 v 0.236 l -6.87,0.009 -0.004,-0.233 c 0,0 -0.038,-1.118 -0.038,-1.54 0,-4.965 6.386,-9.158 13.95,-9.158 8.365,0 13.77,4.578 13.77,11.671 C 12.233,-4.93 6.932,-2.467 0,0"
       style="fill:#1d1d1b icc-color(Display, 0.11399841, 0.11399841, 0.10598755);fill-opacity:1;fill-rule:nonzero;stroke:none"
       transform="matrix(0.35277776,0,0,-0.35277776,113.78851,67.96546)"
       clip-path="url(#clipPath31)" />
    <path
       id="path32"
       d="m 0,0 -8.089,-20.561 -8.085,20.552 -2.137,6.058 H -29.325 V -0.32 h 5.111 l 13.921,-32.846 0.062,-0.148 h 4.056 l 14.037,33.137 2.356,6.226 h -7.97 z"
       style="fill:#1d1d1b icc-color(Display, 0.11399841, 0.11399841, 0.10598755);fill-opacity:1;fill-rule:nonzero;stroke:none"
       transform="matrix(0.35277776,0,0,-0.35277776,106.72106,87.240778)"
       clip-path="url(#clipPath33)" />
    <path
       id="path34"
       d="m 0,0 c -1.91,0 -2.84,0.049 -3.509,0.102 v 11.894 h 3.336 c 5.435,0 8.427,-2.032 8.427,-5.733 C 8.254,2.46 5.013,0 0,0 M 14.117,-14.21 8.414,-4.089 c 4.416,1.884 7.146,5.914 7.146,10.585 0,7.434 -5.753,11.872 -15.382,11.872 h -15.151 v -6.372 h 4.39 L -10.6,-20.581 h 7.1 l -0.009,14.548 c 0.797,-0.044 1.835,-0.044 2.925,-0.044 0.695,0 1.389,0.049 2.123,0.101 l 0.082,0.006 7.652,-14.486 0.067,-0.125 h 9.259 v 6.371 z"
       style="fill:#1d1d1b icc-color(Display, 0.11399841, 0.11399841, 0.10598755);fill-opacity:1;fill-rule:nonzero;stroke:none"
       transform="matrix(0.35277776,0,0,-0.35277776,136.66149,91.586753)"
       clip-path="url(#clipPath35)" />
    <path
       id="path36"
       d="M 0,0 C 0.017,0 0.039,0 0.058,0.006 L 0.294,0 c 4.144,0 7.808,-1.686 10.88,-5.011 l 0.169,-0.186 4.71,4.906 -0.145,0.16 C 12.1,4.089 6.263,6.607 0.294,6.607 H 0.179 c -11.675,0 -20.476,-8.676 -20.476,-20.175 0,-11.881 8.468,-20.18 20.591,-20.18 6.058,0 11.748,2.458 15.614,6.741 l 0.145,0.16 -4.71,4.907 -0.169,-0.184 c -3.072,-3.331 -6.731,-5.014 -10.88,-5.014 -7.697,0 -13.285,5.731 -13.285,13.627 C -12.991,-5.678 -7.529,0 0,0"
       style="fill:#1d1d1b icc-color(Display, 0.11399841, 0.11399841, 0.10598755);fill-opacity:1;fill-rule:nonzero;stroke:none"
       transform="matrix(0.35277776,0,0,-0.35277776,67.220748,87.190473)"
       clip-path="url(#clipPath37)" />
    <path
       id="path38"
       d="m 0,0 c -7.354,0 -12.691,5.704 -12.691,13.569 0,7.862 5.337,13.569 12.691,13.569 7.325,0 12.639,-5.707 12.639,-13.569 C 12.639,5.704 7.325,0 0,0 m 0.121,33.745 c -11.659,0 -20.123,-8.485 -20.123,-20.176 0,-11.694 8.343,-20.179 19.829,-20.179 11.66,0 20.118,8.485 20.118,20.179 0,11.691 -8.338,20.176 -19.824,20.176"
       style="fill:#1d1d1b icc-color(Display, 0.11399841, 0.11399841, 0.10598755);fill-opacity:1;fill-rule:nonzero;stroke:none"
       transform="matrix(0.35277776,0,0,-0.35277776,85.316025,96.764051)"
       clip-path="url(#clipPath39)" />
    <path
       id="path40"
       d="m 0,0 h -0.469 v -6.446 h 4.381 v -32.971 h 24.825 v 0.393 h 0.609 v 6.272 L 22.78,-32.69 H 11.504 v 9.89 h 13.64 v 0.257 h 0.598 v 6.098 H 11.504 V -6.383 H 28.79 v 0.114 H 29.4 V 0.067 H 0 Z"
       style="fill:#1d1d1b icc-color(Display, 0.11399841, 0.11399841, 0.10598755);fill-opacity:1;fill-rule:nonzero;stroke:none"
       transform="matrix(0.35277776,0,0,-0.35277776,115.53066,85.110319)"
       clip-path="url(#clipPath41)" />
  </g>
</svg>
